<?xml version="1.0" standalone="no"?>
<!DOCTYPE svg PUBLIC "-//W3C//DTD SVG 20010904//EN"
 "http://www.w3.org/TR/2001/REC-SVG-20010904/DTD/svg10.dtd">
<svg version="1.0" xmlns="http://www.w3.org/2000/svg"
 width="112.000000pt" height="112.000000pt" viewBox="0 0 112.000000 112.000000"
 preserveAspectRatio="xMidYMid meet">
<metadata>
Created by potrace 1.14, written by Peter Selinger 2001-2017
</metadata>
<g transform="translate(0.000000,112.000000) scale(0.100000,-0.100000)"
fill="#000000" stroke="none">
<path d="M130 1075 c-7 -8 -18 -15 -26 -15 -7 0 -16 -9 -19 -20 -4 -11 -10
-18 -15 -15 -9 6 -48 -69 -57 -112 -8 -34 -9 -685 -1 -728 10 -61 55 -127 106
-154 32 -17 866 -15 884 2 7 7 22 16 32 20 10 4 16 10 13 13 -3 4 3 14 14 23
10 9 28 39 38 66 16 45 18 84 17 407 -1 196 -5 360 -9 364 -4 4 -7 15 -7 24 0
9 -9 27 -20 40 -11 13 -20 26 -20 31 0 4 -19 21 -42 38 l-42 31 -417 0 c-358
0 -418 -2 -429 -15z"/>
</g>
</svg>
